<?xml version="1.0" standalone="no"?>
<!DOCTYPE svg PUBLIC "-//W3C//DTD SVG 20010904//EN"
 "http://www.w3.org/TR/2001/REC-SVG-20010904/DTD/svg10.dtd">
<svg version="1.0" xmlns="http://www.w3.org/2000/svg"
 width="202.000000pt" height="202.000000pt" viewBox="0 0 202.000000 202.000000"
 preserveAspectRatio="xMidYMid meet">
<metadata>
Created by potrace 1.11, written by Peter Selinger 2001-2013
</metadata>
<g transform="translate(0.000000,202.000000) scale(0.100000,-0.100000)"
fill="#000000" stroke="none">
<path d="M160 2003 c-68 -22 -125 -76 -140 -134 -7 -25 -10 -326 -8 -881 l3
-843 24 -38 c13 -21 42 -50 64 -65 l41 -27 865 0 866 0 36 22 c20 13 49 42 65
65 l29 41 3 841 c2 639 0 852 -9 885 -16 56 -71 112 -125 129 -31 9 -243 12
-870 11 -456 0 -836 -3 -844 -6z m1695 -105 c57 -26 55 3 55 -887 0 -615 -3
-827 -12 -846 -26 -57 3 -55 -888 -55 -891 0 -862 -2 -888 55 -16 35 -17 1652
-1 1688 6 13 23 31 37 40 25 15 101 16 849 17 617 0 829 -3 848 -12z"/>
<path d="M430 1668 c-132 -67 -132 -249 0 -315 53 -28 101 -29 155 -4 48 22
69 44 90 95 20 46 17 99 -6 146 -21 43 -44 65 -92 85 -51 21 -95 19 -147 -7z"/>
<path d="M1430 1668 c-132 -67 -132 -249 0 -315 24 -13 60 -23 80 -23 20 0 56
10 80 23 132 66 132 248 0 315 -24 12 -60 22 -80 22 -20 0 -56 -10 -80 -22z"/>
<path d="M430 1168 c-132 -67 -132 -249 0 -316 171 -87 337 121 218 274 -27
33 -92 63 -138 64 -20 0 -56 -10 -80 -22z"/>
<path d="M1430 1168 c-132 -67 -132 -249 0 -315 56 -29 104 -29 160 0 132 66
132 248 0 315 -24 12 -60 22 -80 22 -20 0 -56 -10 -80 -22z"/>
<path d="M430 668 c-132 -67 -132 -249 0 -315 56 -29 104 -29 160 -1 132 67
132 249 0 316 -24 12 -60 22 -80 22 -20 0 -56 -10 -80 -22z"/>
<path d="M1430 668 c-132 -67 -132 -249 0 -315 56 -29 104 -29 160 -1 132 67
132 249 0 316 -24 12 -60 22 -80 22 -20 0 -56 -10 -80 -22z"/>
</g>
</svg>
