<svg version="1" xmlns="http://www.w3.org/2000/svg" width="346.667" height="346.667" viewBox="0 0 260.000000 260.000000"><path d="M21.9 1.7c-1.5.2-5.1 1.9-8 3.6-6.6 4-11.5 11.4-12.4 19.1-.3 2.8-.5 52.3-.3 110.1.3 100.3.4 105.2 2.2 108.5 3.4 6.4 6.3 9.5 11.7 12.5l5.4 3h219l5.4-3c5.4-3 8.3-6.1 11.7-12.5 1.8-3.4 1.9-8 1.9-113V20.5l-3-5.4c-3-5.4-6.1-8.3-12.5-11.7-3.4-1.8-8.1-1.9-111-2-59.1-.1-108.7.1-110.1.3zm217 14.1c1.9 1 4.3 3.4 5.3 5.3 1.7 3.2 1.8 8.6 1.8 108.9 0 100.3-.1 105.7-1.8 108.9-1 1.9-3.4 4.3-5.3 5.3-3.2 1.7-8.6 1.8-108.9 1.8-100.3 0-105.7-.1-108.9-1.8-1.9-1-4.3-3.4-5.3-5.3-1.7-3.2-1.8-8.6-1.8-108.9 0-100.3.1-105.7 1.8-108.9 1-1.9 3.4-4.3 5.3-5.3C24.3 14.1 29.7 14 130 14c100.3 0 105.7.1 108.9 1.8z"/><path d="M61.1 43.2c-17.8 3.1-24.7 26.6-11.4 38.9 12.8 12 33.1 6.7 37.9-9.9 4.9-16.8-9-32.1-26.5-29zM190.3 43.1c-18.3 3.3-25.4 25.6-12.2 38.8 16 15.9 42.9 1.7 38.8-20.6-2.3-12.3-14.1-20.4-26.6-18.2zM54.9 109.8c-16.2 8.4-16.2 32 0 40.4 7.2 3.8 13.8 3.8 21.2 0 16.8-8.5 16.8-31.9 0-40.5-7.4-3.7-14-3.7-21.2.1zM184 109.7c-12.7 6.5-16.6 21.3-8.7 33.1 9.5 14.1 30.6 13.3 38.9-1.6 11.2-19.8-10-41.9-30.2-31.5zM60 171.9c-10.8 3.3-17.3 12-17.2 22.9.1 12.7 9.9 22.3 22.7 22.3 15.8 0 26.5-14.2 22.1-29.3-3.4-11.7-16.5-19.2-27.6-15.9zM186.9 172.5c-6.6 2.1-12.5 8.3-14.5 15.3-4.4 15.1 6.3 29.3 22.1 29.3 12.8 0 22.6-9.6 22.7-22.3.1-16.1-15-27.2-30.3-22.3z"/></svg>