<?xml version="1.0" standalone="no"?>
<!DOCTYPE svg PUBLIC "-//W3C//DTD SVG 20010904//EN"
 "http://www.w3.org/TR/2001/REC-SVG-20010904/DTD/svg10.dtd">
<svg version="1.0" xmlns="http://www.w3.org/2000/svg"
 width="260.000000pt" height="260.000000pt" viewBox="0 0 260.000000 260.000000"
 preserveAspectRatio="xMidYMid meet">
<metadata>
Created by potrace 1.11, written by Peter Selinger 2001-2013
</metadata>
<g transform="translate(0.000000,260.000000) scale(0.100000,-0.100000)"
fill="#000000" stroke="none">
<path d="M215 2581 c-74 -18 -138 -68 -173 -134 l-27 -52 0 -1095 0 -1095 27
-52 c28 -52 63 -84 128 -119 34 -18 80 -19 1130 -19 1050 0 1096 1 1130 19 65
35 100 67 128 119 l27 52 0 1095 0 1095 -27 52 c-28 52 -63 84 -128 119 -33
18 -81 19 -1110 21 -591 0 -1088 -2 -1105 -6z m2174 -139 c19 -10 43 -34 53
-53 17 -32 18 -86 18 -1089 0 -1003 -1 -1057 -18 -1089 -10 -19 -34 -43 -53
-53 -32 -17 -86 -18 -1089 -18 -1003 0 -1057 1 -1089 18 -19 10 -43 34 -53 53
-17 32 -18 86 -18 1089 0 1003 1 1057 18 1089 10 19 34 43 53 53 32 17 86 18
1089 18 1003 0 1057 -1 1089 -18z"/>
<path d="M597 2166 c-201 -54 -231 -331 -45 -427 125 -64 279 -1 324 133 57
171 -104 341 -279 294z"/>
<path d="M1915 2173 c-114 -25 -184 -95 -201 -201 -22 -140 118 -280 258 -258
268 43 266 420 -2 459 -19 2 -44 3 -55 0z"/>
<path d="M549 1502 c-162 -84 -162 -320 0 -404 72 -38 138 -38 212 0 168 85
168 319 0 405 -74 37 -140 37 -212 -1z"/>
<path d="M1840 1503 c-127 -65 -166 -213 -87 -331 95 -141 306 -133 389 16
112 198 -100 419 -302 315z"/>
<path d="M600 881 c-107 -33 -173 -119 -173 -227 0 -126 101 -227 228 -227
207 0 309 247 163 392 -57 58 -148 83 -218 62z"/>
<path d="M1869 875 c-97 -31 -171 -148 -155 -247 36 -227 338 -276 437 -72 88
182 -89 381 -282 319z"/>
</g>
</svg>
