<svg version="1" xmlns="http://www.w3.org/2000/svg" width="682.667" height="682.667" viewBox="0 0 512.000000 512.000000"><path d="M37 5.3C21.5 10.8 10.8 21.5 5.3 37L3 43.5v425l2.3 6.5c5.5 15.5 16.2 26.2 31.7 31.7l6.5 2.3h425l6.5-2.3c15.5-5.5 26.2-16.2 31.7-31.7l2.3-6.5v-425l-2.3-6.5c-5.5-15.5-16.2-26.2-31.7-31.7L468.5 3h-425L37 5.3zm430.3 24.1c5.5 2 10.3 6.1 13.4 11.4l2.8 4.7v421l-2.8 4.7c-3.1 5.3-7.9 9.4-13.4 11.4-5.6 2-417 2-422.6 0-5.5-2-10.3-6.1-13.4-11.4l-2.8-4.7v-421l2.8-4.7c3.1-5.3 7.9-9.4 13.4-11.4 5.6-2 417-2 422.6 0z"/><path d="M115.5 85.8c-12.1 4.2-22.4 13.4-27.8 24.9-2.5 5.6-3.2 8.3-3.5 15.6-1 19.8 8.3 35.7 25.5 43.9 27.6 13.1 59.4-3.6 64.5-33.9 3.7-21.9-10-43.8-31.3-50.4-7.8-2.4-20.5-2.5-27.4-.1zM368.8 85.9c-21.2 7-34.6 28.7-31 50.4 3.3 19.7 18.6 34.9 38.2 38 22.3 3.4 44.6-11 50.5-32.7 2.7-10 1.8-22.2-2.3-30.9-4.4-9.5-12.6-17.8-22-22.5-7-3.4-8.3-3.7-17.6-3.9-7.8-.2-11.4.1-15.8 1.6zM122 211c-10.7 1.9-21.8 8.2-28 16-1.6 2.1-4.5 6.9-6.3 10.7-3 6.4-3.2 7.4-3.2 18.3s.2 11.9 3.2 18.3c4.1 8.6 8 13.6 14.4 18.3 9.6 7 22.1 10.2 33.6 8.4 25.1-3.9 42.7-27.7 38.5-52.1-3.3-19.5-18.8-34.8-38.2-37.8-7.2-1.2-7.6-1.2-14-.1zM375 211.1c-24 4.2-41.3 28.3-37.2 52 5.8 33.6 44.8 49.5 72.1 29.5 6.4-4.7 10.3-9.7 14.4-18.3 3-6.4 3.2-7.4 3.2-18.3s-.2-11.9-3.2-18.2c-4.2-9-7.7-13.3-14.5-18.4-9.6-7.1-23.2-10.3-34.8-8.3zM118.3 338.5c-16.1 4.4-28.7 16.5-32.8 31.9-2.7 10-1.8 22.2 2.3 30.9 4.4 9.4 12.6 17.8 22 22.4 6.4 3.2 8.5 3.7 16.4 4.1 11.1.6 19.5-1.5 27.6-6.8 11-7.1 18.4-18.7 20.5-31.9 4.8-31.4-25.5-58.8-56-50.6zM371 338.8c-8.3 2.2-14.6 5.9-20.9 12.3-19.9 20.2-16 54.4 8.1 69.9 12.4 8.1 30 9.4 43.1 3.2 9.4-4.4 17.8-12.6 22.4-22 3.2-6.4 3.7-8.5 4.1-16.4 1.1-23.3-12.1-41.5-34.5-47.3-7.3-1.9-14.1-1.8-22.3.3z"/></svg>